<svg width="88" height="88" viewBox="0 0 88 88" fill="none" xmlns="http://www.w3.org/2000/svg">
<path d="M44.0002 75.2398C31.3228 75.2398 21.0103 64.9246 21.0103 52.2498V26.8866L44.0002 15.3943L66.9902 26.8893V52.2498C66.9902 64.9246 56.675 75.2398 44.0002 75.2398ZM22.9903 28.1131V52.2498C22.9903 63.8356 32.4145 73.2598 44.0002 73.2598C55.586 73.2598 65.0103 63.8356 65.0103 52.2498V28.1131L44.0002 17.6053L22.9903 28.1131ZM11.0003 25.7398C10.453 25.7398 10.0103 25.2971 10.0103 24.7498V19.2498C10.0103 18.7026 10.453 18.2598 11.0003 18.2598C11.5475 18.2598 11.9903 18.7026 11.9903 19.2498V24.7498C11.9903 25.2971 11.5475 25.7398 11.0003 25.7398ZM19.2503 17.4898H13.7503C13.203 17.4898 12.7603 17.0471 12.7603 16.4998C12.7603 15.9526 13.203 15.5098 13.7503 15.5098H19.2503C19.7975 15.5098 20.2403 15.9526 20.2403 16.4998C20.2403 17.0471 19.7975 17.4898 19.2503 17.4898ZM8.25025 17.4898H2.75025C2.203 17.4898 1.76025 17.0471 1.76025 16.4998C1.76025 15.9526 2.203 15.5098 2.75025 15.5098H8.25025C8.7975 15.5098 9.24025 15.9526 9.24025 16.4998C9.24025 17.0471 8.7975 17.4898 8.25025 17.4898ZM11.0003 14.7398C10.453 14.7398 10.0103 14.2971 10.0103 13.7498V8.24981C10.0103 7.70256 10.453 7.25981 11.0003 7.25981C11.5475 7.25981 11.9903 7.70256 11.9903 8.24981V13.7498C11.9903 14.2971 11.5475 14.7398 11.0003 14.7398ZM85.2503 14.7398C84.9972 14.7398 84.7415 14.6436 84.549 14.4511L81.799 11.7011C81.4112 11.3133 81.4112 10.6891 81.799 10.3013C82.1868 9.91356 82.8137 9.91356 83.2015 10.3013L85.9515 13.0513C86.3392 13.4391 86.3392 14.0633 85.9515 14.4511C85.759 14.6436 85.5033 14.7398 85.2503 14.7398ZM74.2503 14.7398C73.9972 14.7398 73.7415 14.6436 73.549 14.4511C73.1613 14.0633 73.1613 13.4391 73.549 13.0513L76.299 10.3013C76.6868 9.91356 77.3137 9.91356 77.7015 10.3013C78.0892 10.6891 78.0892 11.3133 77.7015 11.7011L74.9515 14.4511C74.759 14.6436 74.5033 14.7398 74.2503 14.7398ZM82.5003 6.48981C82.2472 6.48981 81.9915 6.39356 81.799 6.20106C81.4112 5.81331 81.4112 5.18906 81.799 4.80131L84.549 2.05131C84.9368 1.66356 85.5637 1.66356 85.9515 2.05131C86.3392 2.43906 86.3392 3.06331 85.9515 3.45106L83.2015 6.20106C83.009 6.39356 82.7533 6.48981 82.5003 6.48981ZM77.0003 6.48981C76.7472 6.48981 76.4915 6.39356 76.299 6.20106L73.549 3.45106C73.1613 3.06331 73.1613 2.43906 73.549 2.05131C73.9368 1.66356 74.5637 1.66356 74.9515 2.05131L77.7015 4.80131C78.0892 5.18906 78.0892 5.81331 77.7015 6.20106C77.509 6.39356 77.2533 6.48981 77.0003 6.48981ZM74.2503 86.2398C73.703 86.2398 73.2602 85.7971 73.2602 85.2498V79.7498C73.2602 79.2026 73.703 78.7598 74.2503 78.7598C74.7975 78.7598 75.2402 79.2026 75.2402 79.7498V85.2498C75.2402 85.7971 74.7975 86.2398 74.2503 86.2398ZM82.5003 77.9898H77.0003C76.453 77.9898 76.0102 77.5471 76.0102 76.9998C76.0102 76.4526 76.453 76.0098 77.0003 76.0098H82.5003C83.0475 76.0098 83.4902 76.4526 83.4902 76.9998C83.4902 77.5471 83.0475 77.9898 82.5003 77.9898ZM71.5003 77.9898H66.0003C65.453 77.9898 65.0103 77.5471 65.0103 76.9998C65.0103 76.4526 65.453 76.0098 66.0003 76.0098H71.5003C72.0475 76.0098 72.4902 76.4526 72.4902 76.9998C72.4902 77.5471 72.0475 77.9898 71.5003 77.9898ZM74.2503 75.2398C73.703 75.2398 73.2602 74.7971 73.2602 74.2498V68.7498C73.2602 68.2026 73.703 67.7598 74.2503 67.7598C74.7975 67.7598 75.2402 68.2026 75.2402 68.7498V74.2498C75.2402 74.7971 74.7975 75.2398 74.2503 75.2398Z" fill="#0667B1"/>
</svg>
