<svg width="88" height="88" viewBox="0 0 88 88" fill="none" xmlns="http://www.w3.org/2000/svg">
<path d="M76.9998 40.8648C79.8185 40.8648 82.1148 38.5713 82.1148 35.7498C82.1148 32.9283 79.8185 30.6348 76.9998 30.6348C74.181 30.6348 71.8848 32.9283 71.8848 35.7498C71.8848 38.5713 74.181 40.8648 76.9998 40.8648ZM76.9998 32.6148C78.7295 32.6148 80.1348 34.0228 80.1348 35.7498C80.1348 37.4768 78.7295 38.8848 76.9998 38.8848C75.27 38.8848 73.8648 37.4768 73.8648 35.7498C73.8648 34.0228 75.27 32.6148 76.9998 32.6148ZM86.2398 52.2498V63.2498C86.2398 65.5405 86.2398 69.2695 83.4898 70.7628V85.2498H81.5098V70.1248C81.5098 69.7095 81.7738 69.3355 82.1643 69.1925C84.0975 68.4968 84.2598 65.876 84.2598 63.2498V52.2498C84.2598 48.111 81.1385 44.9898 76.9998 44.9898C72.861 44.9898 69.7398 48.111 69.7398 52.2498V63.2498C69.7398 65.876 69.902 68.4968 71.8353 69.1925C72.2285 69.3355 72.4898 69.7095 72.4898 70.1248V85.2498H70.5098V70.7628C67.7598 69.2695 67.7598 65.5405 67.7598 63.2498V52.2498C67.7598 47.0688 71.8215 43.0098 76.9998 43.0098C82.178 43.0098 86.2398 47.0688 86.2398 52.2498ZM10.9998 40.8648C13.8185 40.8648 16.1148 38.5713 16.1148 35.7498C16.1148 32.9283 13.8185 30.6348 10.9998 30.6348C8.18102 30.6348 5.88477 32.931 5.88477 35.7498C5.88477 38.5685 8.18102 40.8648 10.9998 40.8648ZM10.9998 32.6148C12.7268 32.6148 14.1348 34.0228 14.1348 35.7498C14.1348 37.4768 12.7268 38.8848 10.9998 38.8848C9.27277 38.8848 7.86477 37.4768 7.86477 35.7498C7.86477 34.0228 9.27277 32.6148 10.9998 32.6148ZM20.2398 52.2498V63.2498C20.2398 65.3893 20.2398 69.2503 17.4898 70.76V85.2498H15.5098V70.1248C15.5098 69.7095 15.771 69.3355 16.1643 69.1925C18.0975 68.4968 18.2598 65.8733 18.2598 63.2498V52.2498C18.2598 48.111 15.1385 44.9898 10.9998 44.9898C6.86102 44.9898 3.73977 48.111 3.73977 52.2498V63.2498C3.73977 65.8733 3.90202 68.4968 5.83527 69.1925C6.22852 69.3355 6.48977 69.7095 6.48977 70.1248V85.2498H4.50977V70.76C1.75977 69.2475 1.75977 65.3893 1.75977 63.2498V52.2498C1.75977 47.0688 5.81877 43.0098 10.9998 43.0098C16.1808 43.0098 20.2398 47.0688 20.2398 52.2498ZM43.9998 17.4898C48.3365 17.4898 51.8648 13.9615 51.8648 9.62477C51.8648 5.28802 48.3338 1.75977 43.9998 1.75977C39.663 1.75977 36.1348 5.28802 36.1348 9.62477C36.1348 13.9615 39.6603 17.4898 43.9998 17.4898ZM43.9998 3.73977C47.2448 3.73977 49.882 6.37977 49.882 9.62477C49.882 12.8698 47.2448 15.5098 43.9998 15.5098C40.7548 15.5098 38.1148 12.8698 38.1148 9.62477C38.1148 6.37977 40.752 3.73977 43.9998 3.73977ZM57.7498 76.0098H50.4898V55.6708C53.8998 54.1445 55.9898 50.7923 55.9898 46.7525V33.0025C55.9898 26.056 50.9463 21.0125 43.997 21.0125C37.0505 21.0125 32.0098 26.0533 32.0098 33.0025V46.7525C32.0098 50.7923 34.0998 54.1445 37.5098 55.6708V76.0098H30.2498C29.7025 76.0098 29.2598 76.4525 29.2598 76.9998V85.2498H31.2398V77.9898H56.7598V85.2498H58.7425V76.9998C58.7398 76.4525 58.297 76.0098 57.7498 76.0098ZM38.838 54.0675C35.846 52.9895 33.9898 50.1845 33.9898 46.7498V32.9998C33.9898 27.2 38.2 22.9898 43.9998 22.9898C49.8023 22.9898 54.0098 27.2 54.0098 32.9998V46.7498C54.0098 50.1845 52.1535 52.9895 49.1643 54.0675C48.771 54.2105 48.5098 54.5845 48.5098 54.9998V76.0098H39.4898V54.9998C39.4898 54.5845 39.2285 54.2105 38.838 54.0675Z" fill="#0667B1"/>
</svg>
