<svg width="88" height="88" viewBox="0 0 88 88" fill="none" xmlns="http://www.w3.org/2000/svg">
<path d="M66.9903 85.2499H65.0103V64.6249C65.0103 54.8569 58.3718 46.4639 48.8623 44.2089C48.4498 44.1099 48.1445 43.7607 48.106 43.3399C48.0648 42.9164 48.3013 42.5149 48.689 42.3417C52.8608 40.4854 55.553 36.3439 55.553 31.7927C55.553 25.4237 50.372 20.2399 44.003 20.2399C37.634 20.2399 32.4503 25.4209 32.4503 31.7927C32.4503 36.3439 35.1453 40.4882 39.3143 42.3417C39.702 42.5149 39.9385 42.9164 39.8973 43.3399C39.8588 43.7607 39.5535 44.1127 39.141 44.2089C29.6315 46.4639 22.993 54.8569 22.993 64.6249V85.2499H21.0103V64.6249C21.0103 54.7469 27.217 46.1504 36.369 42.9577C32.7225 40.4634 30.4675 36.2999 30.4675 31.7899C30.4675 26.3889 33.6493 21.7139 38.239 19.5469C38.778 18.1967 39.0503 16.7667 39.0503 15.2927C39.0503 8.9237 33.8693 3.73995 27.5003 3.73995C21.1313 3.73995 15.9475 8.92095 15.9475 15.2927C15.9475 19.8467 18.6425 23.9882 22.8115 25.8417C23.202 26.0149 23.433 26.4164 23.3945 26.8399C23.356 27.2607 23.0508 27.6127 22.6383 27.7089C13.1288 29.9639 6.49025 38.3569 6.49025 48.1249V68.7499H4.51025V48.1249C4.51025 38.2469 10.717 29.6504 19.869 26.4577C16.2225 23.9634 13.9703 19.7999 13.9703 15.2927C13.9703 7.83195 20.0395 1.7627 27.5003 1.7627C34.961 1.7627 41.0303 7.83195 41.0303 15.2927C41.0303 16.4532 40.8873 17.5917 40.5985 18.6944C42.7738 18.1307 45.2268 18.1307 47.3993 18.6944C47.1133 17.5917 46.9675 16.4532 46.9675 15.2927C46.9675 7.83195 53.0395 1.7627 60.5003 1.7627C67.961 1.7627 74.033 7.83195 74.033 15.2927C74.033 19.8027 71.778 23.9662 68.1315 26.4604C77.2863 29.6532 83.493 38.2497 83.493 48.1277V68.7499H81.5103V48.1249C81.5103 38.3569 74.8718 29.9639 65.3623 27.7089C64.9498 27.6099 64.6445 27.2607 64.606 26.8399C64.5648 26.4164 64.8013 26.0149 65.189 25.8417C69.358 23.9854 72.0503 19.8439 72.0503 15.2927C72.0503 8.9237 66.8693 3.73995 60.5003 3.73995C54.1313 3.73995 48.9503 8.92095 48.9503 15.2927C48.9503 16.7667 49.2225 18.1967 49.7615 19.5497C54.3513 21.7194 57.533 26.3917 57.533 31.7927C57.533 36.3027 55.278 40.4662 51.6315 42.9604C60.7863 46.1532 66.993 54.7497 66.993 64.6277L66.9903 85.2499Z" fill="#0667B1"/>
</svg>
