<svg width="104" height="104" viewBox="0 0 104 104" fill="none" xmlns="http://www.w3.org/2000/svg">
<path d="M61.7501 101.92H42.2501V99.58H61.7501V101.92ZM65.0001 95.42H39.0001V93.08H65.0001V95.42ZM65.0001 88.92H39.0001V86.58H65.0001V88.92ZM65.0001 82.42H39.0001C38.3533 82.42 37.8301 81.8968 37.8301 81.25V76.5278C37.8301 71.2563 37.8301 63.2905 31.1968 56.394C24.9958 49.9395 21.5801 41.7593 21.5801 33.3613C21.5801 15.821 34.9408 2.08325 52.0001 2.08325C69.0593 2.08325 82.4201 15.821 82.4201 33.3613C82.4201 41.7593 79.0043 49.9427 72.8033 56.3907C66.1701 63.2905 66.1701 71.2563 66.1701 76.5278V81.25C66.1701 81.8968 65.6468 82.42 65.0001 82.42ZM40.1701 80.08H63.8301V76.5278C63.8301 71.2238 63.8301 62.348 71.1166 54.769C76.8951 48.7532 80.0801 41.1515 80.0801 33.358C80.0801 17.1308 67.7463 4.42 52.0001 4.42C36.2538 4.42 23.9201 17.1308 23.9201 33.358C23.9201 41.1515 27.1018 48.7532 32.8836 54.769C40.1701 62.348 40.1701 71.2238 40.1701 76.5278V80.08ZM55.8448 54.795H48.1586C47.5118 54.795 46.9886 54.2718 46.9886 53.625V49.3708L44.7753 48.4445L41.7593 51.4605C41.5416 51.6815 41.2426 51.8018 40.9338 51.8018C40.6218 51.8018 40.3261 51.6783 40.1083 51.4605L34.6743 46.0233C34.2161 45.565 34.2161 44.8273 34.6743 44.369L37.6806 41.3595L36.7706 39.1398H32.5001C31.8533 39.1398 31.3301 38.6165 31.3301 37.9697V30.2803C31.3301 29.6335 31.8533 29.1103 32.5001 29.1103H36.7543L37.6806 26.897L34.6678 23.881C34.2096 23.4228 34.2096 22.685 34.6678 22.2268L40.1018 16.7895C40.5406 16.3475 41.3173 16.3475 41.7561 16.7895L44.7656 19.799L46.9886 18.889V14.625C46.9886 13.9783 47.5118 13.455 48.1586 13.455H55.8448C56.4916 13.455 57.0148 13.9783 57.0148 14.625V18.8793L59.2281 19.8055L62.2441 16.7895C62.7023 16.3313 63.4433 16.3313 63.9016 16.7895L69.3388 22.2268C69.7971 22.685 69.7971 23.4228 69.3388 23.881L66.3293 26.8905L67.2393 29.1103H71.5001C72.1468 29.1103 72.6701 29.6335 72.6701 30.2803V37.9697C72.6701 38.6165 72.1468 39.1398 71.5001 39.1398H67.2426L66.3196 41.353L69.3356 44.369C69.7938 44.8273 69.7938 45.565 69.3356 46.0233L63.8983 51.4605C63.6806 51.6815 63.3816 51.8018 63.0696 51.8018C62.7576 51.8018 62.4586 51.6783 62.2408 51.4605L59.2346 48.451L57.0116 49.361V53.625C57.0148 54.2718 56.4916 54.795 55.8448 54.795ZM49.3253 52.455H54.6748V48.5745C54.6748 48.1 54.9608 47.671 55.3996 47.4923L59.0688 45.9908C59.5043 45.812 60.0081 45.9128 60.3428 46.2475L63.0728 48.9775L66.8558 45.1945L64.1096 42.4515C63.7748 42.1168 63.6741 41.6098 63.8593 41.171L65.3901 37.5148C65.5721 37.0793 65.9978 36.7965 66.4691 36.7965H70.3301V31.4503H66.4561C65.9816 31.4503 65.5558 31.1643 65.3738 30.7255L63.8691 27.0595C63.6903 26.624 63.7911 26.1203 64.1226 25.7888L66.8558 23.0555L63.0696 19.2725L60.3266 22.0155C59.9886 22.3535 59.4816 22.451 59.0461 22.269L55.3898 20.7383C54.9543 20.5563 54.6716 20.1305 54.6716 19.6593V15.795H49.3221V19.6723C49.3221 20.1468 49.0361 20.5758 48.5973 20.7545L44.9313 22.2593C44.4893 22.438 43.9921 22.334 43.6606 22.0025L40.9273 19.2725L37.1476 23.0555L39.8906 25.7985C40.2286 26.1333 40.3261 26.6403 40.1441 27.079L38.6133 30.7353C38.4313 31.1708 38.0056 31.4535 37.5343 31.4535H33.6701V36.803H37.5506C38.0251 36.803 38.4541 37.089 38.6328 37.5278L40.1343 41.1938C40.3131 41.6293 40.2123 42.133 39.8776 42.4645L37.1476 45.1978L40.9306 48.9808L43.6736 46.2378C44.0083 45.8998 44.5121 45.7958 44.9541 45.9843L48.6103 47.515C49.0458 47.697 49.3286 48.1228 49.3286 48.594L49.3253 52.455ZM52.0001 43.42C46.8748 43.42 42.7051 39.2503 42.7051 34.125C42.7051 28.9998 46.8748 24.83 52.0001 24.83C57.1253 24.83 61.2951 28.9998 61.2951 34.125C61.2951 39.2503 57.1253 43.42 52.0001 43.42ZM52.0001 27.17C48.1651 27.17 45.0451 30.29 45.0451 34.125C45.0451 37.96 48.1651 41.08 52.0001 41.08C55.8351 41.08 58.9551 37.96 58.9551 34.125C58.9551 30.29 55.8351 27.17 52.0001 27.17Z" fill="#0667B1"/>
</svg>
