<svg width="104" height="104" viewBox="0 0 104 104" fill="none" xmlns="http://www.w3.org/2000/svg">
<path d="M100.75 101.92H61.7501C61.1033 101.92 60.5801 101.397 60.5801 100.75V95.4232H22.7501C22.1033 95.4232 21.5801 94.9 21.5801 94.2532V75.9232H3.25008C2.60333 75.9232 2.08008 75.4 2.08008 74.7533V29.2533C2.08008 28.6065 2.60333 28.0832 3.25008 28.0832H21.5963V9.75325C21.5963 9.1065 22.1196 8.58325 22.7663 8.58325H60.5801V3.25C60.5801 2.60325 61.1033 2.08 61.7501 2.08H100.75C101.397 2.08 101.92 2.60325 101.92 3.25V16.25C101.92 16.8968 101.397 17.42 100.75 17.42H61.7501C61.1033 17.42 60.5801 16.8968 60.5801 16.25V10.9233H23.9331V28.0832H42.2501C42.8968 28.0832 43.4201 28.6065 43.4201 29.2533V50.8365H60.5801V45.5033C60.5801 44.8565 61.1033 44.3332 61.7501 44.3332H100.75C101.397 44.3332 101.92 44.8565 101.92 45.5033V58.5032C101.92 59.15 101.397 59.6732 100.75 59.6732H61.7501C61.1033 59.6732 60.5801 59.15 60.5801 58.5032V53.1765H43.4201V74.7533C43.4201 75.4 42.8968 75.9232 42.2501 75.9232H23.9201V93.08H60.5801V87.75C60.5801 87.1032 61.1033 86.58 61.7501 86.58H100.75C101.397 86.58 101.92 87.1032 101.92 87.75V100.75C101.92 101.397 101.397 101.92 100.75 101.92ZM62.9201 99.58H99.5801V88.92H62.9201V99.58ZM4.42008 73.5833H41.0801V30.4232H4.42008V73.5833ZM62.9201 57.3333H99.5801V46.6765H62.9201V57.3333ZM62.9201 15.08H99.5801V4.42H62.9201V15.08ZM35.7631 62.9232H9.76308V60.58H35.7631V62.9232ZM35.7631 53.17H9.76308V50.83H35.7631V53.17ZM35.7631 43.4232H9.76308V41.0832H35.7631V43.4232Z" fill="#0667B1"/>
</svg>
