<svg width="77" height="14" viewBox="0 0 77 14" fill="none" xmlns="http://www.w3.org/2000/svg">
<g opacity="0.3">
<path d="M24.1083 4.24584C23.8449 3.50844 23.3825 2.83807 22.7315 2.25536C22.0754 1.66234 21.1352 1.18535 19.9417 0.832116C18.7148 0.471148 17.1236 0.288086 15.212 0.288086H0V13.0689H15.212C17.0202 13.0689 18.5494 12.8859 19.7506 12.5249C20.9285 12.1717 21.8817 11.6895 22.5791 11.0913C23.2662 10.5035 23.7648 9.83053 24.0618 9.08797C24.3692 8.32478 24.5242 7.51518 24.5242 6.67722C24.5242 5.8341 24.3847 5.01419 24.1083 4.24584ZM19.7971 8.10562C19.5904 8.54652 19.2572 8.91522 18.8103 9.20142C18.3919 9.46699 17.8675 9.65778 17.2062 9.78412C16.5966 9.90273 15.8527 9.96203 14.9925 9.96203H4.21308V3.39499H14.9925C15.8527 3.39499 16.5966 3.45429 17.2062 3.57289C17.8675 3.69923 18.3919 3.89003 18.8103 4.1556C19.2572 4.4418 19.5904 4.8105 19.7971 5.2514C19.9908 5.66651 20.089 6.14608 20.089 6.67722C20.089 7.21094 19.9908 7.69051 19.7971 8.10562Z" fill="white"/>
<path d="M48.1973 0.288086L40.515 13.0689H33.5793L25.8145 0.288086H30.4925L37.0485 12.4398L43.6019 0.288086H48.1973Z" fill="white"/>
<path d="M54.9969 0.288086H50.7812V13.0689H54.9969V0.288086Z" fill="white"/>
<path d="M76.1424 0.288086V7.14132C76.1424 7.87615 75.9745 8.61097 75.6413 9.31744C75.3107 10.0265 74.776 10.6865 74.0553 11.2821C73.3217 11.8855 72.3581 12.3754 71.1906 12.7363C70.0023 13.1024 68.5506 13.2881 66.8767 13.2881C65.704 13.2881 64.5339 13.1798 63.3973 12.9606C62.2839 12.7466 61.2688 12.396 60.3776 11.9164C59.52 11.4549 58.8277 10.8335 58.3163 10.0703C57.9159 9.46956 57.6705 8.73989 57.5801 7.89419H61.7002C61.9998 8.73731 62.5397 9.36127 63.3095 9.75834C64.1516 10.1915 65.3191 10.4003 66.8767 10.4003C68.1993 10.4003 69.1912 10.2456 69.9119 9.92851C70.6894 9.58559 71.2345 9.08539 71.529 8.4408C71.7924 7.86068 71.9268 7.20062 71.9268 6.48126V0.288086H76.1424Z" fill="white"/>
</g>
</svg>
