<svg width="36" height="36" viewBox="0 0 36 36" fill="none" xmlns="http://www.w3.org/2000/svg">
<path d="M21.9637 12.1341C21.3939 12.1341 20.9665 12.5615 20.9665 13.1313C20.9665 13.7011 21.3939 14.1285 21.9637 14.1285C22.5335 14.1285 22.9609 13.7011 22.9609 13.1313C22.9609 12.5615 22.5335 12.1341 21.9637 12.1341ZM17.5475 13.4162C15.2207 13.4162 13.3687 15.3156 13.3687 17.595C13.3687 19.8743 15.2682 21.7737 17.5475 21.7737C19.8268 21.7737 21.7263 19.8743 21.7263 17.595C21.7263 15.3156 19.8743 13.4162 17.5475 13.4162ZM17.5475 20.3017C16.0754 20.3017 14.8408 19.1145 14.8408 17.595C14.8408 16.1229 16.0279 14.8883 17.5475 14.8883C19.0196 14.8883 20.2542 16.0754 20.2542 17.595C20.2067 19.1145 19.0196 20.3017 17.5475 20.3017ZM26 14.1285C26 11.2793 23.7207 9 20.8715 9H14.1285C11.2793 9 9 11.2793 9 14.1285V20.8715C9 23.7207 11.2793 26 14.1285 26H20.8715C23.7207 26 26 23.7207 26 20.8715V14.1285ZM24.3855 20.8715C24.3855 22.8184 22.8184 24.3855 20.8715 24.3855H14.1285C12.1816 24.3855 10.6145 22.8184 10.6145 20.8715V14.1285C10.6145 12.1816 12.1816 10.6145 14.1285 10.6145H20.8715C22.8184 10.6145 24.3855 12.1816 24.3855 14.1285V20.8715Z" fill="#0667B1"/>
<path d="M18 35C27.3888 35 35 27.3888 35 18C35 8.61115 27.3888 1 18 1C8.61115 1 1 8.61115 1 18C1 27.3888 8.61115 35 18 35Z" stroke="#0667B1"/>
</svg>
