<svg width="80" height="80" viewBox="0 0 80 80" fill="none" xmlns="http://www.w3.org/2000/svg">
<path d="M59.9996 78.4001C49.8521 78.4001 41.5996 70.1451 41.5996 60.0001C41.5996 57.0726 42.3071 54.1676 43.6446 51.5951C44.7396 49.4426 46.2546 47.5301 48.0846 45.9801C45.3596 43.4201 42.0921 41.4301 38.5771 40.2001C38.2371 40.0826 38.0021 39.7726 37.9771 39.4151C37.9521 39.0576 38.1396 38.7176 38.4596 38.5526C44.6996 35.3201 48.5721 29.0076 48.5721 22.0776C48.5721 11.7801 40.2396 3.4026 29.9971 3.4026C19.6446 3.4026 11.2221 11.7801 11.2221 22.0776C11.2221 29.0001 15.0996 35.3226 21.3396 38.5801C21.6571 38.7451 21.8471 39.0851 21.8196 39.4426C21.7921 39.8001 21.5596 40.1076 21.2196 40.2276C10.5596 43.9726 3.39711 53.9776 3.39711 65.1276V77.5001H1.59961V65.1251C1.59961 53.8426 8.45961 43.6551 18.8571 39.2151C12.9946 35.4476 9.42461 29.0376 9.42461 22.0751C9.42461 10.7851 18.6546 1.6001 29.9996 1.6001C41.2346 1.6001 50.3746 10.7851 50.3746 22.0751C50.3746 29.0451 46.8071 35.4426 40.9471 39.1901C44.1121 40.5451 47.0421 42.4826 49.5346 44.8726C49.6146 44.8176 49.6971 44.7601 49.7821 44.7051C52.8046 42.6751 56.3396 41.6001 59.9996 41.6001C70.1471 41.6001 78.3996 49.8526 78.3996 60.0001C78.3996 70.1476 70.1471 78.4001 59.9996 78.4001ZM59.9996 43.4001C56.6996 43.4001 53.5096 44.3701 50.7796 46.2026C48.4346 47.7526 46.5221 49.9001 45.2446 52.4151C44.0371 54.7401 43.3996 57.3601 43.3996 59.9976C43.3996 69.1501 50.8471 76.5976 59.9996 76.5976C69.1521 76.5976 76.5996 69.1501 76.5996 59.9976C76.5996 50.8451 69.1521 43.4001 59.9996 43.4001ZM60.8996 68.7501H59.0996V65.9001H54.9996V64.1001H62.4996C63.3821 64.1001 64.0996 63.3826 64.0996 62.5001C64.0996 61.6176 63.3821 60.9001 62.4996 60.9001H57.4996C55.6246 60.9001 54.0996 59.3751 54.0996 57.5001C54.0996 55.6251 55.6246 54.1001 57.4996 54.1001H59.0996V51.2501H60.9021V54.1001H64.9996V55.9026H57.4996C56.6171 55.9026 55.8996 56.6201 55.8996 57.5026C55.8996 58.3851 56.6171 59.1026 57.4996 59.1026H62.4996C64.3746 59.1026 65.8996 60.6276 65.8996 62.5026C65.8996 64.3776 64.3746 65.9026 62.4996 65.9026H60.8996V68.7501Z" fill="#0667B1"/>
</svg>
