<svg width="36" height="36" viewBox="0 0 36 36" fill="none" xmlns="http://www.w3.org/2000/svg">
<path d="M17.9726 1.28812C27.3615 1.28812 34.9726 8.89927 34.9726 18.2881C34.9726 27.6769 27.3615 35.2881 17.9726 35.2881C8.58381 35.2881 0.972656 27.6769 0.972656 18.2881C0.972656 8.89927 8.58381 1.28812 17.9726 1.28812Z" stroke="white" stroke-opacity="0.3"/>
<path d="M22.5008 16.1336C22.4181 15.4619 22.2117 14.9345 21.845 14.4673C21.3689 13.8657 20.7605 13.5055 19.8597 13.2918C19.2727 13.1494 19.0355 13.1657 18.8232 13.3597C18.6254 13.5414 18.5868 13.9056 18.7379 14.1415C18.8442 14.3127 18.9668 14.374 19.3079 14.441C19.762 14.5245 20.0758 14.633 20.3613 14.7962C20.9672 15.1461 21.2494 15.6936 21.2796 16.5799C21.2937 16.9961 21.3297 17.1241 21.475 17.2717C21.7445 17.5415 22.2239 17.489 22.4273 17.1661C22.502 17.0444 22.5133 16.9914 22.5212 16.7088C22.5264 16.5339 22.5189 16.2735 22.5008 16.1336Z" fill="white"/>
<path d="M24.8744 16.891C24.7547 14.833 23.9498 13.1773 22.5092 12.0123C21.6975 11.3578 20.7164 10.9076 19.641 10.6887C19.2471 10.6105 18.5217 10.547 18.3973 10.5833C18.2799 10.6169 18.1138 10.7441 18.0398 10.859C17.9615 10.9837 17.9439 11.2621 18.0106 11.4231C18.1184 11.6923 18.3189 11.7874 18.8805 11.8365C19.7461 11.9123 20.639 12.2164 21.3136 12.6666C22.0838 13.1793 22.696 13.8805 23.0921 14.7044C23.4343 15.4123 23.6448 16.4326 23.639 17.3462C23.637 17.6766 23.688 17.8632 23.8209 17.9996C24.0215 18.2094 24.3139 18.2552 24.5719 18.1159C24.8579 17.9655 24.9248 17.7015 24.8744 16.891Z" fill="white"/>
<path d="M27.5018 24.8163C27.4615 24.6987 27.3676 24.5173 27.3005 24.4131C26.8777 23.7747 24.6063 21.9971 23.4723 21.4157C22.8247 21.0831 22.3449 20.9722 21.9893 21.0764C21.6068 21.1839 21.4055 21.362 20.7646 22.1584C20.5063 22.4776 20.2413 22.7767 20.1708 22.8237C19.9963 22.9447 19.6541 23.0422 19.4125 23.0422C18.8522 23.0387 17.8356 22.6759 17.0539 22.1987C16.4466 21.8291 15.6682 21.1671 15.071 20.5119C14.3664 19.7424 13.8866 19.0636 13.5075 18.2975C13.0176 17.3129 12.8935 16.7114 13.0981 16.2712C13.1485 16.1604 13.2156 16.0428 13.2457 16.0058C13.276 15.9722 13.5914 15.7135 13.9403 15.4312C14.6247 14.8869 14.7354 14.7625 14.8629 14.3895C15.024 13.9157 14.9804 13.4318 14.7321 12.9446C14.5408 12.575 14.0409 11.7685 13.6786 11.2477C13.1988 10.5623 12.0044 9.0972 11.7661 8.89889C11.3367 8.54946 10.7865 8.48894 10.1791 8.7242C9.53835 8.97287 8.33717 9.9406 7.82382 10.616C7.36081 11.2276 7.18304 11.661 7.15617 12.2323C7.13271 12.7027 7.17295 12.8976 7.42124 13.4991C9.36387 18.2168 12.2627 21.9836 16.2453 24.9743C18.3255 26.5368 20.4828 27.7263 22.7207 28.5395C24.0258 29.0133 24.5929 29.0368 25.2605 28.647C25.5424 28.479 26.2402 27.7633 26.6294 27.2424C27.2736 26.3755 27.5119 25.9756 27.5789 25.6564C27.6259 25.438 27.589 25.0583 27.5018 24.8163Z" fill="white"/>
<path d="M27.2905 17.3638C27.2476 16.1997 27.0516 15.2448 26.6429 14.1802C26.2394 13.1331 25.831 12.4497 25.0598 11.5255C24.3307 10.6589 23.7644 10.1641 22.8662 9.61328C21.6131 8.84588 20.088 8.33804 18.379 8.12447C17.7961 8.04982 17.6643 8.05515 17.4855 8.17447C17.1389 8.40048 17.1436 8.96423 17.4912 9.18686C17.6062 9.25768 17.7083 9.28348 18.1745 9.3445C18.8902 9.44086 19.3504 9.53166 19.8965 9.68065C22.0378 10.266 23.6845 11.4625 24.7853 13.2386C25.7066 14.719 26.089 16.1995 26.0347 18.0904C26.0158 18.7296 26.0296 18.8421 26.1273 18.9957C26.3144 19.282 26.8079 19.3386 27.0611 19.1011C27.2186 18.9563 27.2483 18.8476 27.2793 18.3005C27.2942 18.0151 27.2974 17.5937 27.2905 17.3638Z" fill="white"/>
</svg>
