<svg width="36" height="36" viewBox="0 0 36 36" fill="none" xmlns="http://www.w3.org/2000/svg">
<path d="M28.0469 13.4788C27.8164 12.6221 27.1409 11.9469 26.2842 11.7162C24.7191 11.2881 18.4588 11.2881 18.4588 11.2881C18.4588 11.2881 12.1986 11.2881 10.6335 11.7C9.79334 11.9304 9.10132 12.6223 8.87085 13.4788C8.45898 15.0433 8.45898 18.2881 8.45898 18.2881C8.45898 18.2881 8.45898 21.5492 8.87085 23.0974C9.10156 23.9539 9.77686 24.6292 10.6337 24.8598C12.2151 25.2881 18.459 25.2881 18.459 25.2881C18.459 25.2881 24.7191 25.2881 26.2842 24.8762C27.141 24.6457 27.8164 23.9704 28.0472 23.1139C28.4589 21.5492 28.4589 18.3046 28.4589 18.3046C28.4589 18.3046 28.4754 15.0433 28.0469 13.4788ZM16.4656 21.2857V15.2905L21.6714 18.2881L16.4656 21.2857Z" fill="white"/>
<path d="M18.459 35.2881C27.8478 35.2881 35.4589 27.6769 35.4589 18.2881C35.4589 8.89924 27.8478 1.28809 18.459 1.28809C9.07014 1.28809 1.45898 8.89924 1.45898 18.2881C1.45898 27.6769 9.07014 35.2881 18.459 35.2881Z" stroke="white" stroke-opacity="0.3"/>
</svg>
