<svg width="88" height="88" viewBox="0 0 88 88" fill="none" xmlns="http://www.w3.org/2000/svg">
<path d="M19.2503 36.74C18.703 36.74 18.2603 36.2973 18.2603 35.75V31.625C18.2603 31.0778 18.703 30.635 19.2503 30.635C19.7975 30.635 20.2403 31.0778 20.2403 31.625V35.75C20.2403 36.2973 19.7975 36.74 19.2503 36.74ZM30.9185 31.9083C30.6655 31.9083 30.4125 31.812 30.22 31.6195L27.3023 28.7018C26.9145 28.314 26.9145 27.6898 27.3023 27.302C27.69 26.9143 28.3143 26.9143 28.702 27.302L31.6198 30.2198C32.0075 30.6075 32.0075 31.2318 31.6198 31.6195C31.4245 31.812 31.1715 31.9083 30.9185 31.9083ZM7.582 31.9083C7.329 31.9083 7.076 31.812 6.8835 31.6195C6.49575 31.2318 6.49575 30.6075 6.8835 30.2198L9.80125 27.302C10.189 26.9143 10.8133 26.9143 11.201 27.302C11.5888 27.6898 11.5888 28.314 11.201 28.7018L8.28326 31.6195C8.08801 31.812 7.835 31.9083 7.582 31.9083ZM19.2503 28.49C14.1545 28.49 10.0103 24.3458 10.0103 19.25C10.0103 14.1543 14.1545 10.01 19.2503 10.01C24.346 10.01 28.4903 14.1543 28.4903 19.25C28.4903 24.3458 24.346 28.49 19.2503 28.49ZM19.2503 11.99C15.2463 11.99 11.9903 15.246 11.9903 19.25C11.9903 23.254 15.2463 26.51 19.2503 26.51C23.2543 26.51 26.5103 23.254 26.5103 19.25C26.5103 15.246 23.2543 11.99 19.2503 11.99ZM35.7503 20.24H31.6253C31.078 20.24 30.6353 19.7973 30.6353 19.25C30.6353 18.7028 31.078 18.26 31.6253 18.26H35.7503C36.2975 18.26 36.7403 18.7028 36.7403 19.25C36.7403 19.7973 36.2975 20.24 35.7503 20.24ZM6.87525 20.24H2.75025C2.203 20.24 1.76025 19.7973 1.76025 19.25C1.76025 18.7028 2.203 18.26 2.75025 18.26H6.87525C7.4225 18.26 7.86525 18.7028 7.86525 19.25C7.86525 19.7973 7.4225 20.24 6.87525 20.24ZM28.0008 11.4895C27.7478 11.4895 27.4948 11.3933 27.3023 11.2008C26.9145 10.813 26.9145 10.1888 27.3023 9.80101L30.22 6.88326C30.6078 6.49551 31.232 6.49551 31.6198 6.88326C32.0075 7.27101 32.0075 7.89526 31.6198 8.28301L28.702 11.2008C28.5068 11.3933 28.2538 11.4895 28.0008 11.4895ZM10.4998 11.4895C10.2468 11.4895 9.99375 11.3933 9.80125 11.2008L6.88075 8.28026C6.493 7.89251 6.493 7.26826 6.88075 6.88051C7.2685 6.49276 7.89275 6.49276 8.2805 6.88051L11.1983 9.79826C11.586 10.186 11.586 10.8103 11.1983 11.198C11.0058 11.3933 10.7528 11.4895 10.4998 11.4895ZM19.2503 7.86501C18.703 7.86501 18.2603 7.42226 18.2603 6.87501V2.75001C18.2603 2.20276 18.703 1.76001 19.2503 1.76001C19.7975 1.76001 20.2403 2.20276 20.2403 2.75001V6.87501C20.2403 7.42226 19.7975 7.86501 19.2503 7.86501ZM85.2503 86.24H2.75025V84.26H45.7603V75.24H27.5003C26.953 75.24 26.5103 74.7973 26.5103 74.25V41.25C26.5103 40.7028 26.953 40.26 27.5003 40.26H77.0003C77.5475 40.26 77.9903 40.7028 77.9903 41.25V74.25C77.9903 74.7973 77.5475 75.24 77.0003 75.24H58.7403V84.2573H85.2503V86.24ZM53.2403 84.26H56.7575V75.24H53.2403V84.26ZM47.7403 84.26H51.2575V75.24H47.7403V84.26ZM61.4903 73.26H76.0075V58.74H61.4903V73.26ZM44.9903 73.26H59.5103V58.74H44.9903V73.26ZM28.4903 73.26H43.0103V58.74H28.4903V73.26ZM61.4903 56.76H76.0075V42.24H61.4903V56.76ZM44.9903 56.76H59.5103V42.24H44.9903V56.76ZM28.4903 56.76H43.0103V42.24H28.4903V56.76Z" fill="#0667B1"/>
</svg>
