<svg width="88" height="88" viewBox="0 0 88 88" fill="none" xmlns="http://www.w3.org/2000/svg">
<path d="M46.7498 77.99H2.74977C2.20252 77.99 1.75977 77.5473 1.75977 77V19.25C1.75977 18.986 1.86427 18.7358 2.04852 18.5515L18.5485 2.05151C18.7355 1.86451 18.9858 1.76001 19.2498 1.76001H60.4998C61.047 1.76001 61.4898 2.20276 61.4898 2.75001V35.75H59.5098V3.74001H20.2398V19.25C20.2398 19.7973 19.797 20.24 19.2498 20.24H3.73977V76.01H46.7498V77.99ZM5.13952 18.26H18.2598V5.13976L5.13952 18.26ZM45.3748 61.49H10.9998C10.4525 61.49 10.0098 61.0473 10.0098 60.5C10.0098 59.9528 10.4525 59.51 10.9998 59.51H45.3748C45.922 59.51 46.3648 59.9528 46.3648 60.5C46.3648 61.0473 45.922 61.49 45.3748 61.49ZM45.3748 53.24H10.9998C10.4525 53.24 10.0098 52.7973 10.0098 52.25C10.0098 51.7028 10.4525 51.26 10.9998 51.26H45.3748C45.922 51.26 46.3648 51.7028 46.3648 52.25C46.3648 52.7973 45.922 53.24 45.3748 53.24ZM45.3748 44.99H10.9998C10.4525 44.99 10.0098 44.5473 10.0098 44C10.0098 43.4528 10.4525 43.01 10.9998 43.01H45.3748C45.922 43.01 46.3648 43.4528 46.3648 44C46.3648 44.5473 45.922 44.99 45.3748 44.99ZM52.2498 36.74H10.9998C10.4525 36.74 10.0098 36.2973 10.0098 35.75C10.0098 35.2028 10.4525 34.76 10.9998 34.76H52.2498C52.797 34.76 53.2398 35.2028 53.2398 35.75C53.2398 36.2973 52.797 36.74 52.2498 36.74ZM68.7498 86.24C59.1055 86.24 51.2598 78.3915 51.2598 68.75V48.8868L68.7498 40.1418L86.2398 48.8868V68.75C86.2398 78.3943 78.394 86.24 68.7498 86.24ZM53.2398 50.1133V68.75C53.2398 77.3025 60.1945 84.26 68.7498 84.26C77.305 84.26 84.2598 77.3053 84.2598 68.75V50.1133L68.7498 42.3555L53.2398 50.1133Z" fill="#0667B1"/>
</svg>
