<svg width="104" height="104" viewBox="0 0 104 104" fill="none" xmlns="http://www.w3.org/2000/svg">
<path d="M81.6656 102.31C76.2933 102.31 70.9893 100.217 67.0243 96.2585C61.5091 90.74 59.5818 82.5305 62.0128 75.1563L28.8401 41.99C21.4593 44.4177 13.2596 42.4872 7.74432 36.9752C1.55632 30.7905 -0.068675 21.333 3.70132 13.4453C3.86382 13.104 4.18232 12.8603 4.55932 12.7953C4.94282 12.7368 5.31657 12.8538 5.58307 13.1235L18.5896 26.13C20.6696 28.2035 24.0496 28.2068 26.1296 26.13C28.2063 24.05 28.2063 20.67 26.1296 18.59L13.1231 5.5835C12.8533 5.31375 12.7331 4.9335 12.7948 4.55975C12.8598 4.186 13.1003 3.8675 13.4448 3.70175C21.3326 -0.0714998 30.7868 1.55675 36.9716 7.7415C42.4901 13.26 44.4206 21.4695 41.9831 28.847L75.1526 62.0132C82.5333 59.5692 90.7396 61.5062 96.2548 67.0247C102.436 73.2095 104.061 82.6638 100.295 90.5548C100.129 90.896 99.8103 91.1398 99.4333 91.2015C99.0823 91.273 98.6826 91.143 98.4096 90.8765L85.4031 77.87C83.3263 75.7932 79.9431 75.7932 77.8696 77.87C75.7896 79.95 75.7896 83.33 77.8696 85.4035L90.8761 98.41C91.1426 98.6798 91.2661 99.06 91.2011 99.4338C91.1361 99.8075 90.8956 100.129 90.5543 100.295C87.7203 101.65 84.6848 102.31 81.6656 102.31ZM29.1456 39.4745C29.4511 39.4745 29.7501 39.5947 29.9711 39.8158L64.1871 74.0187C64.5121 74.3438 64.6161 74.8248 64.4568 75.2538C61.9706 81.9553 63.6281 89.5505 68.6818 94.601C73.7648 99.684 81.3438 101.296 87.9933 98.8423L76.2153 87.0643C73.2286 84.0743 73.2286 79.209 76.2153 76.2158C79.2183 73.2323 84.0803 73.2355 87.0638 76.2158L98.8418 87.9938C101.296 81.341 99.6868 73.7652 94.6006 68.6822C89.5501 63.6285 81.9613 61.971 75.2533 64.4573C74.8243 64.6133 74.3466 64.5125 74.0183 64.1875L39.8121 29.9813C39.4871 29.6595 39.3831 29.1752 39.5423 28.7463C42.0318 22.0448 40.3711 14.4495 35.3206 9.39575C30.2376 4.31275 22.6586 2.70075 16.0058 5.15775L27.7838 16.9358C29.2268 18.3787 30.0198 20.306 30.0198 22.36C30.0198 24.414 29.2236 26.3412 27.7806 27.781C24.8946 30.6702 19.8181 30.667 16.9353 27.781L5.15732 16.0063C2.70357 22.6558 4.31232 30.2347 9.39532 35.321C14.4458 40.3715 22.0443 42.029 28.7393 39.546C28.8726 39.4972 29.0091 39.4745 29.1456 39.4745ZM9.28807 101.53C8.98907 101.53 8.68682 101.413 8.46257 101.189L2.79782 95.524C2.35582 95.082 2.33957 94.3735 2.75882 93.9088L12.3008 83.4145C12.5153 83.1772 12.8176 83.0408 13.1393 83.031C13.3896 83.031 13.7666 83.148 13.9941 83.3722L16.4771 85.8553L40.7741 61.555L42.4283 63.2125L18.1313 87.5128L20.6111 89.9925C20.8386 90.22 20.9621 90.5288 20.9523 90.8505C20.9426 91.1723 20.8061 91.4712 20.5688 91.689L10.0746 101.231C9.85357 101.429 9.57082 101.53 9.28807 101.53ZM5.24182 94.6563L9.32707 98.7447L18.0858 90.779L13.2043 85.8975L5.24182 94.6563ZM69.4228 47.1835L67.7653 45.5292L98.0261 15.2685C99.2741 14.0238 99.9598 12.3695 99.9598 10.6113C99.9598 8.853 99.2741 7.19875 98.0261 5.954C95.4651 3.393 91.2856 3.3865 88.7181 5.954L58.4573 36.2147L56.7998 34.5605L87.0606 4.29975C90.4341 0.92625 96.3166 0.93275 99.6836 4.29975C101.37 5.9865 102.3 8.22575 102.3 10.6113C102.3 12.9968 101.37 15.236 99.6836 16.9227L69.4228 47.1835ZM63.9401 41.7007L62.2826 40.0465L92.4491 9.88L94.1066 11.5343L63.9401 41.7007Z" fill="#0667B1"/>
</svg>
