<svg width="36" height="36" viewBox="0 0 36 36" fill="none" xmlns="http://www.w3.org/2000/svg">
<path fill-rule="evenodd" clip-rule="evenodd" d="M16.2205 17.8624V26.0898C16.2205 26.189 16.3212 26.2881 16.4218 26.2881H19.5422C19.6429 26.2881 19.7435 26.189 19.7435 26.0898V17.7137H22.0083C22.109 17.7137 22.2096 17.6146 22.2096 17.5155L22.411 14.9878C22.411 14.8391 22.3103 14.74 22.2096 14.74H19.7435V13.0053C19.7435 12.6088 20.0958 12.2618 20.4985 12.2618H22.2096C22.3103 12.2618 22.411 12.1627 22.411 12.0636V9.48634C22.5116 9.38721 22.411 9.28809 22.26 9.28809H19.3409C17.6297 9.28809 16.2205 10.6758 16.2205 12.361V14.7895H14.6603C14.5596 14.7895 14.459 14.8887 14.459 14.9878V17.5155C14.459 17.6146 14.5596 17.7137 14.6603 17.7137H16.2205V17.8624Z" fill="white"/>
<path d="M18.459 35.2881C27.8478 35.2881 35.4589 27.6769 35.4589 18.2881C35.4589 8.89924 27.8478 1.28809 18.459 1.28809C9.07014 1.28809 1.45898 8.89924 1.45898 18.2881C1.45898 27.6769 9.07014 35.2881 18.459 35.2881Z" stroke="white" stroke-opacity="0.3"/>
</svg>
