<svg width="36" height="36" viewBox="0 0 36 36" fill="none" xmlns="http://www.w3.org/2000/svg">
<path fill-rule="evenodd" clip-rule="evenodd" d="M15.7615 17.5743V25.8018C15.7615 25.9009 15.8622 26 15.9628 26H19.0832C19.1839 26 19.2845 25.9009 19.2845 25.8018V17.4257H21.5493C21.65 17.4257 21.7507 17.3265 21.7507 17.2274L21.952 14.6997C21.952 14.551 21.8513 14.4519 21.7507 14.4519H19.2845V12.7172C19.2845 12.3207 19.6368 11.9738 20.0395 11.9738H21.7507C21.8513 11.9738 21.952 11.8746 21.952 11.7755V9.19825C22.0526 9.09913 21.952 9 21.801 9H18.8819C17.1707 9 15.7615 10.3878 15.7615 12.0729V14.5015H14.2013C14.1007 14.5015 14 14.6006 14 14.6997V17.2274C14 17.3265 14.1007 17.4257 14.2013 17.4257H15.7615V17.5743Z" fill="#0667B1"/>
<path d="M18 35C27.3888 35 35 27.3888 35 18C35 8.61115 27.3888 1 18 1C8.61115 1 1 8.61115 1 18C1 27.3888 8.61115 35 18 35Z" stroke="#0667B1"/>
</svg>
