<svg width="36" height="36" viewBox="0 0 36 36" fill="none" xmlns="http://www.w3.org/2000/svg">
<path d="M22.4227 12.4222C21.8528 12.4222 21.4255 12.8495 21.4255 13.4194C21.4255 13.9892 21.8528 14.4166 22.4227 14.4166C22.9925 14.4166 23.4199 13.9892 23.4199 13.4194C23.4199 12.8495 22.9925 12.4222 22.4227 12.4222ZM18.0065 13.7043C15.6797 13.7043 13.8277 15.6037 13.8277 17.8831C13.8277 20.1624 15.7271 22.0618 18.0065 22.0618C20.2858 22.0618 22.1852 20.1624 22.1852 17.8831C22.1852 15.6037 20.3333 13.7043 18.0065 13.7043ZM18.0065 20.5898C16.5344 20.5898 15.2998 19.4026 15.2998 17.8831C15.2998 16.411 16.4869 15.1764 18.0065 15.1764C19.4785 15.1764 20.7132 16.3635 20.7132 17.8831C20.6657 19.4026 19.4785 20.5898 18.0065 20.5898ZM26.459 14.4166C26.459 11.5674 24.1797 9.28809 21.3305 9.28809H14.5875C11.7383 9.28809 9.45898 11.5674 9.45898 14.4166V21.1596C9.45898 24.0088 11.7383 26.2881 14.5875 26.2881H21.3305C24.1797 26.2881 26.459 24.0088 26.459 21.1596V14.4166ZM24.8445 21.1596C24.8445 23.1065 23.2774 24.6736 21.3305 24.6736H14.5875C12.6405 24.6736 11.0735 23.1065 11.0735 21.1596V14.4166C11.0735 12.4697 12.6405 10.9026 14.5875 10.9026H21.3305C23.2774 10.9026 24.8445 12.4697 24.8445 14.4166V21.1596Z" fill="white"/>
<path d="M18.459 35.2881C27.8478 35.2881 35.4589 27.6769 35.4589 18.2881C35.4589 8.89924 27.8478 1.28809 18.459 1.28809C9.07014 1.28809 1.45898 8.89924 1.45898 18.2881C1.45898 27.6769 9.07014 35.2881 18.459 35.2881Z" stroke="white" stroke-opacity="0.3"/>
</svg>
