<?xml version="1.0" encoding="utf-8"?>
<!-- Generator: Adobe Illustrator 24.1.1, SVG Export Plug-In . SVG Version: 6.00 Build 0)  -->
<svg version="1.1" id="Слой_1" xmlns="http://www.w3.org/2000/svg" xmlns:xlink="http://www.w3.org/1999/xlink" x="0px" y="0px"
	 viewBox="0 0 34 34" style="enable-background:new 0 0 34 34;" xml:space="preserve">
<style type="text/css">
	.st0{fill:none;stroke:#0667B1;stroke-width:0.5152;stroke-miterlimit:2.0606;}
	.st1{fill:#0667B1;}
</style>
<g>
	<path class="st0" d="M10.3,23.4V27l3.4-1.9c0.9,0.3,2,0.4,3,0.4c5.6,0,10.1-4.2,10.1-9.4c0-5.2-4.5-9.4-10.1-9.4
		c-5.6,0-10.1,4.2-10.1,9.4C6.6,19,8,21.6,10.3,23.4z"/>
	<path class="st1" d="M15.6,13.5l-5.5,5.8l5-2.7l2.6,2.7l5.4-5.8l-4.9,2.7L15.6,13.5z"/>
	<g>
		<g class="st2">
			<path class="st1" d="M17,0.5c9.1,0,16.5,7.4,16.5,16.5S26.1,33.5,17,33.5S0.5,26.1,0.5,17S7.9,0.5,17,0.5 M17,0C7.6,0,0,7.6,0,17
				s7.6,17,17,17s17-7.6,17-17S26.4,0,17,0L17,0z"/>
		</g>
	</g>
</g>
</svg>
