<svg width="105" height="105" viewBox="0 0 105 105" fill="none" xmlns="http://www.w3.org/2000/svg">
<path d="M99.3301 48.1297C97.2498 25.7253 79.2718 7.74409 56.874 5.66378C56.454 3.63269 54.6526 2.10034 52.5001 2.10034C50.3279 2.10034 48.5199 3.65894 48.1229 5.71956C34.6698 6.96644 22.5587 13.8046 14.5754 24.6622C14.1193 24.5047 13.637 24.3997 13.1251 24.3997C10.6642 24.3997 8.6626 26.4013 8.6626 28.8622C8.6626 30.155 9.22369 31.31 10.1031 32.1271C7.00229 38.555 5.38135 45.3964 5.38135 52.5003C5.38135 61.6452 8.01947 70.4586 12.9742 78.0941C12.3409 78.8652 11.9438 79.8364 11.9438 80.9094C11.9438 83.3703 13.9454 85.3719 16.4063 85.3719C17.1282 85.3719 17.7976 85.1849 18.4013 84.8797C27.2935 94.2378 39.6442 99.6191 52.5001 99.6191C53.1531 99.6191 53.6813 99.0908 53.6813 98.4378V69.9107C55.5681 69.3889 56.9626 67.6761 56.9626 65.6253C56.9626 63.5746 55.5648 61.8618 53.6813 61.34V10.8449C54.9578 10.4938 56.0012 9.60128 56.5459 8.41675C68.6012 11.9507 77.5688 30.5389 77.5688 52.5003H79.9346C79.9346 33.1869 73.0965 16.2885 63.1707 9.10253C81.3226 13.5913 95.1892 29.2691 96.9742 48.3069C95.2351 48.9172 93.9751 50.5578 93.9751 52.5036C93.9751 54.9646 95.9767 56.9661 98.4376 56.9661C100.899 56.9661 102.9 54.9646 102.9 52.5036C102.9 50.3446 101.364 48.5432 99.3301 48.1297ZM48.0376 65.6253C48.0376 67.6761 49.4321 69.3889 51.3188 69.9107V97.1516C38.9715 96.1016 28.7701 78.8291 27.5954 56.7332C29.3968 56.1589 30.7126 54.4888 30.7126 52.5003C30.7126 50.5086 29.3935 48.8417 27.5921 48.2675C28.6651 28.0714 37.2751 11.7013 48.4543 8.41675C48.999 9.598 50.0457 10.4938 51.3188 10.8449V61.34C49.4321 61.8618 48.0376 63.5746 48.0376 65.6253ZM26.2501 50.4003C27.4084 50.4003 28.3501 51.3421 28.3501 52.5003C28.3501 53.6586 27.4084 54.6003 26.2501 54.6003C25.0918 54.6003 24.1501 53.6586 24.1501 52.5003C24.1501 51.3421 25.0918 50.4003 26.2501 50.4003ZM13.1251 26.7622C14.2834 26.7622 15.2251 27.7039 15.2251 28.8622C15.2251 30.0205 14.2834 30.9622 13.1251 30.9622C11.9668 30.9622 11.0251 30.0205 11.0251 28.8622C11.0251 27.7039 11.9668 26.7622 13.1251 26.7622ZM14.3063 80.9094C14.3063 79.7511 15.2481 78.8094 16.4063 78.8094C17.5646 78.8094 18.5063 79.7511 18.5063 80.9094C18.5063 82.0677 17.5646 83.0094 16.4063 83.0094C15.2481 83.0094 14.3063 82.0677 14.3063 80.9094ZM20.1601 83.3014C20.6031 82.6091 20.8688 81.7921 20.8688 80.9094C20.8688 78.4485 18.8673 76.4469 16.4063 76.4469C15.8748 76.4469 15.3728 76.5552 14.9035 76.7258C10.231 69.4939 7.74385 61.1497 7.74385 52.5003C7.74385 45.7803 9.27291 39.3097 12.1965 33.223C12.4951 33.2853 12.8068 33.3214 13.1251 33.3214C15.586 33.3214 17.5876 31.3199 17.5876 28.8589C17.5876 27.7663 17.1774 26.7786 16.5245 26.001C22.7687 17.5353 31.6642 11.675 41.7409 9.19769C32.6649 15.8586 26.1615 30.6767 25.2329 48.1658C23.2609 48.6285 21.7876 50.3905 21.7876 52.5003C21.7876 54.6102 23.2642 56.3755 25.2329 56.8382C26.1779 74.5832 32.8618 89.4013 41.9837 95.9703C33.7281 93.9491 26.132 89.5686 20.1601 83.3014ZM54.6001 65.6253C54.6001 66.7836 53.6584 67.7253 52.5001 67.7253C51.3418 67.7253 50.4001 66.7836 50.4001 65.6253C50.4001 64.4671 51.3418 63.5253 52.5001 63.5253C53.6584 63.5253 54.6001 64.4671 54.6001 65.6253ZM52.5001 8.66284C51.3418 8.66284 50.4001 7.72112 50.4001 6.56284C50.4001 5.40456 51.3418 4.46284 52.5001 4.46284C53.6584 4.46284 54.6001 5.40456 54.6001 6.56284C54.6001 7.72112 53.6584 8.66284 52.5001 8.66284ZM98.4376 54.6003C97.2793 54.6003 96.3376 53.6586 96.3376 52.5003C96.3376 51.3421 97.2793 50.4003 98.4376 50.4003C99.5959 50.4003 100.538 51.3421 100.538 52.5003C100.538 53.6586 99.5959 54.6003 98.4376 54.6003ZM61.1626 93.0566H70.0909V80.8503H61.1626V93.0566ZM63.5251 83.2128H67.7218V90.6908H63.5251V83.2128ZM74.2876 93.0566H83.2159V71.0066H74.2876V93.0566ZM76.6501 73.3691H80.8468V90.6908H76.6501V73.3691ZM87.4126 93.0566H96.3409V61.1628H87.4126V93.0566ZM89.7751 63.5253H93.9718V90.6908H89.7751V63.5253Z" fill="#0667B1"/>
</svg>
