<svg width="80" height="80" viewBox="0 0 80 80" fill="none" xmlns="http://www.w3.org/2000/svg">
<path d="M17.5001 33.4001C17.0026 33.4001 16.6001 32.9976 16.6001 32.5001V28.7501C16.6001 28.2526 17.0026 27.8501 17.5001 27.8501C17.9976 27.8501 18.4001 28.2526 18.4001 28.7501V32.5001C18.4001 32.9976 17.9976 33.4001 17.5001 33.4001ZM28.1076 29.0076C27.8776 29.0076 27.6476 28.9201 27.4726 28.7451L24.8201 26.0926C24.4676 25.7401 24.4676 25.1726 24.8201 24.8201C25.1726 24.4676 25.7401 24.4676 26.0926 24.8201L28.7451 27.4726C29.0976 27.8251 29.0976 28.3926 28.7451 28.7451C28.5676 28.9201 28.3376 29.0076 28.1076 29.0076ZM6.8926 29.0076C6.6626 29.0076 6.4326 28.9201 6.2576 28.7451C5.9051 28.3926 5.9051 27.8251 6.2576 27.4726L8.9101 24.8201C9.2626 24.4676 9.8301 24.4676 10.1826 24.8201C10.5351 25.1726 10.5351 25.7401 10.1826 26.0926L7.5301 28.7451C7.3526 28.9201 7.1226 29.0076 6.8926 29.0076ZM17.5001 25.9001C12.8676 25.9001 9.1001 22.1326 9.1001 17.5001C9.1001 12.8676 12.8676 9.1001 17.5001 9.1001C22.1326 9.1001 25.9001 12.8676 25.9001 17.5001C25.9001 22.1326 22.1326 25.9001 17.5001 25.9001ZM17.5001 10.9001C13.8601 10.9001 10.9001 13.8601 10.9001 17.5001C10.9001 21.1401 13.8601 24.1001 17.5001 24.1001C21.1401 24.1001 24.1001 21.1401 24.1001 17.5001C24.1001 13.8601 21.1401 10.9001 17.5001 10.9001ZM32.5001 18.4001H28.7501C28.2526 18.4001 27.8501 17.9976 27.8501 17.5001C27.8501 17.0026 28.2526 16.6001 28.7501 16.6001H32.5001C32.9976 16.6001 33.4001 17.0026 33.4001 17.5001C33.4001 17.9976 32.9976 18.4001 32.5001 18.4001ZM6.2501 18.4001H2.5001C2.0026 18.4001 1.6001 17.9976 1.6001 17.5001C1.6001 17.0026 2.0026 16.6001 2.5001 16.6001H6.2501C6.7476 16.6001 7.1501 17.0026 7.1501 17.5001C7.1501 17.9976 6.7476 18.4001 6.2501 18.4001ZM25.4551 10.4451C25.2251 10.4451 24.9951 10.3576 24.8201 10.1826C24.4676 9.8301 24.4676 9.2626 24.8201 8.9101L27.4726 6.2576C27.8251 5.9051 28.3926 5.9051 28.7451 6.2576C29.0976 6.6101 29.0976 7.1776 28.7451 7.5301L26.0926 10.1826C25.9151 10.3576 25.6851 10.4451 25.4551 10.4451ZM9.5451 10.4451C9.3151 10.4451 9.0851 10.3576 8.9101 10.1826L6.2551 7.5276C5.9026 7.1751 5.9026 6.6076 6.2551 6.2551C6.6076 5.9026 7.1751 5.9026 7.5276 6.2551L10.1801 8.9076C10.5326 9.2601 10.5326 9.8276 10.1801 10.1801C10.0051 10.3576 9.7751 10.4451 9.5451 10.4451ZM17.5001 7.1501C17.0026 7.1501 16.6001 6.7476 16.6001 6.2501V2.5001C16.6001 2.0026 17.0026 1.6001 17.5001 1.6001C17.9976 1.6001 18.4001 2.0026 18.4001 2.5001V6.2501C18.4001 6.7476 17.9976 7.1501 17.5001 7.1501ZM77.5001 78.4001H2.5001V76.6001H41.6001V68.4001H25.0001C24.5026 68.4001 24.1001 67.9976 24.1001 67.5001V37.5001C24.1001 37.0026 24.5026 36.6001 25.0001 36.6001H70.0001C70.4976 36.6001 70.9001 37.0026 70.9001 37.5001V67.5001C70.9001 67.9976 70.4976 68.4001 70.0001 68.4001H53.4001V76.5976H77.5001V78.4001ZM48.4001 76.6001H51.5976V68.4001H48.4001V76.6001ZM43.4001 76.6001H46.5976V68.4001H43.4001V76.6001ZM55.9001 66.6001H69.0976V53.4001H55.9001V66.6001ZM40.9001 66.6001H54.1001V53.4001H40.9001V66.6001ZM25.9001 66.6001H39.1001V53.4001H25.9001V66.6001ZM55.9001 51.6001H69.0976V38.4001H55.9001V51.6001ZM40.9001 51.6001H54.1001V38.4001H40.9001V51.6001ZM25.9001 51.6001H39.1001V38.4001H25.9001V51.6001Z" fill="#0667B1"/>
</svg>
