<svg width="36" height="36" viewBox="0 0 36 36" fill="none" xmlns="http://www.w3.org/2000/svg">
<path d="M18 35C27.3888 35 35 27.3888 35 18C35 8.61118 27.3888 1 18 1C8.61118 1 1 8.61118 1 18C1 27.3888 8.61118 35 18 35Z" stroke="#0667B1"/>
<path d="M7.33148 18.8315C9.31876 17.7369 11.5371 16.8233 13.6098 15.905C17.1757 14.4009 20.7558 12.9229 24.372 11.5469C25.0755 11.3125 26.3397 11.0832 26.4637 12.1258C26.3958 13.6017 26.1166 15.069 25.9251 16.5362C25.4389 19.7628 24.8771 22.9783 24.3292 26.1943C24.1404 27.2655 22.7985 27.8201 21.9398 27.1345C19.8763 25.7407 17.7969 24.3604 15.7598 22.9343C15.0925 22.2562 15.7113 21.2824 16.3072 20.7982C18.0068 19.1233 19.8092 17.7003 21.42 15.9388C21.8545 14.8895 20.5707 15.7738 20.1473 16.0448C17.8205 17.6481 15.5507 19.3494 13.0976 20.7586C11.8446 21.4483 10.3842 20.8589 9.13169 20.474C8.00869 20.009 6.36308 19.5406 7.33137 18.8316L7.33148 18.8315Z" fill="#0667B1"/>
</svg>
