<svg width="36" height="36" viewBox="0 0 36 36" fill="none" xmlns="http://www.w3.org/2000/svg">
<path d="M17.9726 35.2881C27.3614 35.2881 34.9726 27.6769 34.9726 18.2881C34.9726 8.89926 27.3614 1.28809 17.9726 1.28809C8.58383 1.28809 0.972656 8.89926 0.972656 18.2881C0.972656 27.6769 8.58383 35.2881 17.9726 35.2881Z" stroke="white" stroke-opacity="0.3"/>
<path d="M7.30316 19.1193C9.29044 18.0246 11.5088 17.111 13.5815 16.1927C17.1474 14.6886 20.7275 13.2106 24.3436 11.8346C25.0472 11.6002 26.3114 11.3709 26.4353 12.4136C26.3675 13.8894 26.0883 15.3567 25.8967 16.8239C25.4106 20.0505 24.8488 23.2661 24.3009 26.482C24.1121 27.5532 22.7702 28.1078 21.9115 27.4223C19.848 26.0284 17.7686 24.6482 15.7315 23.222C15.0641 22.5439 15.6829 21.5702 16.2789 21.086C17.9785 19.411 19.7809 17.988 21.3917 16.2265C21.8262 15.1773 20.5424 16.0615 20.1189 16.3325C17.7922 17.9359 15.5224 19.6371 13.0693 21.0463C11.8163 21.7361 10.3558 21.1466 9.10337 20.7617C7.98037 20.2967 6.33476 19.8283 7.30305 19.1193L7.30316 19.1193Z" fill="white"/>
</svg>
