<svg width="36" height="36" viewBox="0 0 36 36" fill="none" xmlns="http://www.w3.org/2000/svg">
<path d="M18 1.00004C27.3888 1.00004 35 8.61119 35 18C35 27.3888 27.3888 35 18 35C8.61115 35 1 27.3888 1 18C1 8.61119 8.61115 1.00004 18 1.00004Z" stroke="#0667B1"/>
<path d="M22.5291 15.8456C22.4464 15.1738 22.24 14.6464 21.8733 14.1792C21.3972 13.5776 20.7888 13.2174 19.888 13.0037C19.301 12.8613 19.0638 12.8776 18.8515 13.0716C18.6538 13.2533 18.6151 13.6175 18.7663 13.8534C18.8725 14.0246 18.9952 14.0859 19.3362 14.1529C19.7903 14.2364 20.1041 14.3449 20.3896 14.5081C20.9955 14.858 21.2777 15.4055 21.3079 16.2918C21.3221 16.708 21.358 16.836 21.5034 16.9836C21.7728 17.2534 22.2523 17.2009 22.4556 16.878C22.5303 16.7563 22.5417 16.7034 22.5495 16.4208C22.5547 16.2458 22.5472 15.9854 22.5291 15.8456Z" fill="#0667B1"/>
<path d="M24.9018 16.6029C24.7821 14.5449 23.9771 12.8892 22.5365 11.7242C21.7249 11.0697 20.7438 10.6196 19.6683 10.4007C19.2744 10.3224 18.5491 10.2589 18.4247 10.2952C18.3072 10.3288 18.1412 10.456 18.0671 10.5709C17.9889 10.6956 17.9712 10.974 18.038 11.135C18.1458 11.4042 18.3463 11.4993 18.9078 11.5484C19.7735 11.6242 20.6663 11.9283 21.3409 12.3786C22.1111 12.8912 22.7234 13.5924 23.1195 14.4163C23.4617 15.1243 23.6721 16.1445 23.6663 17.0581C23.6644 17.3885 23.7154 17.5751 23.8483 17.7115C24.0488 17.9213 24.3412 17.9672 24.5992 17.8278C24.8852 17.6774 24.9521 17.4135 24.9018 16.6029Z" fill="#0667B1"/>
<path d="M27.5291 24.5281C27.4889 24.4105 27.395 24.229 27.3278 24.1249C26.9051 23.4865 24.6337 21.7089 23.4996 21.1275C22.8521 20.7949 22.3723 20.684 22.0166 20.7882C21.6342 20.8957 21.4328 21.0738 20.792 21.8702C20.5337 22.1894 20.2686 22.4885 20.1981 22.5355C20.0237 22.6565 19.6815 22.7539 19.4399 22.7539C18.8796 22.7505 17.863 22.3876 17.0812 21.9105C16.4739 21.5409 15.6956 20.8789 15.0983 20.2237C14.3937 19.4542 13.914 18.7754 13.5348 18.0093C13.045 17.0247 12.9208 16.4232 13.1255 15.983C13.1758 15.8722 13.2429 15.7546 13.2731 15.7176C13.3033 15.684 13.6187 15.4252 13.9676 15.143C14.6521 14.5986 14.7628 14.4743 14.8903 14.1013C15.0513 13.6275 15.0077 13.1436 14.7594 12.6564C14.5682 12.2868 14.0683 11.4803 13.7059 10.9595C13.2261 10.2741 12.0317 8.80899 11.7935 8.61068C11.364 8.26125 10.8138 8.20073 10.2065 8.436C9.56569 8.68466 8.36452 9.65239 7.85116 10.3278C7.38815 10.9394 7.21039 11.3728 7.18352 11.9441C7.16005 12.4145 7.2003 12.6094 7.44858 13.2109C9.39122 17.9286 12.29 21.6954 16.2726 24.6861C18.3528 26.2485 20.5102 27.4381 22.748 28.2513C24.0532 28.7251 24.6202 28.7486 25.2879 28.3588C25.5697 28.1908 26.2676 27.4751 26.6568 26.9542C27.301 26.0873 27.5392 25.6874 27.6063 25.3682C27.6533 25.1498 27.6164 24.7701 27.5291 24.5281Z" fill="#0667B1"/>
<path d="M27.3189 17.0756C27.2759 15.9115 27.0799 14.9566 26.6712 13.892C26.2677 12.8448 25.8594 12.1615 25.0881 11.2373C24.359 10.3707 23.7927 9.87586 22.8945 9.32507C21.6414 8.55767 20.1164 8.04983 18.4073 7.83626C17.8244 7.76161 17.6926 7.76695 17.5138 7.88626C17.1673 8.11228 17.1719 8.67602 17.5195 8.89865C17.6345 8.96947 17.7367 8.99527 18.2029 9.05629C18.9185 9.15265 19.3787 9.24345 19.9248 9.39244C22.0661 9.97779 23.7128 11.1743 24.8137 12.9504C25.7349 14.4308 26.1173 15.9113 26.063 17.8022C26.0442 18.4414 26.0579 18.5539 26.1556 18.7075C26.3427 18.9938 26.8362 19.0504 27.0894 18.8129C27.2469 18.6681 27.2766 18.5594 27.3076 18.0123C27.3225 17.7269 27.3257 17.3055 27.3189 17.0756Z" fill="#0667B1"/>
</svg>
