<svg width="36" height="36" viewBox="0 0 36 36" fill="none" xmlns="http://www.w3.org/2000/svg">
<path d="M17.9726 35.2881C27.3615 35.2881 34.9726 27.6769 34.9726 18.2881C34.9726 8.89924 27.3615 1.28809 17.9726 1.28809C8.58381 1.28809 0.972656 8.89924 0.972656 18.2881C0.972656 27.6769 8.58381 35.2881 17.9726 35.2881Z" stroke="white" stroke-opacity="0.3"/>
<path fill-rule="evenodd" clip-rule="evenodd" d="M18.5335 27.7462H18.5293C16.8375 27.7456 15.1751 27.3211 13.6986 26.5157L8.33984 27.9215L9.77394 22.6832C8.88932 21.1502 8.42384 19.4112 8.4246 17.6296C8.42681 12.056 12.9616 7.52148 18.5334 7.52148C21.2376 7.52265 23.7757 8.57539 25.6842 10.4861C27.5927 12.3968 28.6432 14.9365 28.6422 17.6375C28.6399 23.2098 24.107 27.7439 18.5335 27.7462ZM13.9471 24.6858L14.2539 24.8679C15.5439 25.6334 17.0226 26.0384 18.5303 26.039H18.5337C23.1646 26.039 26.9337 22.2698 26.9356 17.637C26.9364 15.392 26.0633 13.2811 24.477 11.6929C22.8907 10.1048 20.7812 9.22971 18.537 9.22894C13.9025 9.22894 10.1334 12.9977 10.1315 17.6302C10.1309 19.2178 10.5751 20.7639 11.4161 22.1016L11.6159 22.4195L10.7671 25.52L13.9471 24.6858ZM23.2808 19.8138C23.4569 19.899 23.5759 19.9565 23.6267 20.0413C23.6898 20.1466 23.6898 20.6523 23.4794 21.2424C23.2689 21.8324 22.2598 22.3709 21.7745 22.4434C21.3393 22.5084 20.7886 22.5356 20.1836 22.3433C19.8167 22.2269 19.3463 22.0715 18.7437 21.8112C16.3757 20.7888 14.7755 18.4938 14.4731 18.06C14.4519 18.0296 14.4371 18.0084 14.4288 17.9973L14.4268 17.9946C14.2931 17.8163 13.3975 16.6212 13.3975 15.3844C13.3975 14.221 13.969 13.6111 14.232 13.3304C14.2501 13.3112 14.2666 13.2935 14.2815 13.2773C14.513 13.0244 14.7867 12.9612 14.955 12.9612C15.1234 12.9612 15.292 12.9628 15.4391 12.9702C15.4573 12.9711 15.4762 12.971 15.4957 12.9709C15.6429 12.97 15.8264 12.9689 16.0074 13.4037C16.0771 13.5711 16.179 13.8192 16.2864 14.0808C16.5038 14.61 16.7439 15.1946 16.7862 15.2792C16.8493 15.4056 16.8914 15.5531 16.8072 15.7217C16.7946 15.747 16.7829 15.7709 16.7717 15.7937C16.7085 15.9228 16.662 16.0177 16.5547 16.1431C16.5125 16.1923 16.4688 16.2455 16.4252 16.2986C16.3383 16.4044 16.2514 16.5102 16.1758 16.5856C16.0493 16.7115 15.9177 16.8482 16.065 17.1011C16.2124 17.3539 16.7193 18.181 17.4702 18.8508C18.2773 19.5708 18.9789 19.8751 19.3345 20.0293C19.4039 20.0594 19.4601 20.0838 19.5014 20.1045C19.7539 20.231 19.9012 20.2098 20.0486 20.0413C20.1959 19.8727 20.68 19.3037 20.8484 19.0509C21.0167 18.7981 21.1852 18.8402 21.4166 18.9245C21.6482 19.0088 22.89 19.6198 23.1426 19.7462C23.1919 19.7709 23.238 19.7932 23.2808 19.8138Z" fill="white"/>
</svg>
