<svg width="36" height="36" viewBox="0 0 36 36" fill="none" xmlns="http://www.w3.org/2000/svg">
<path d="M18 35C27.3888 35 35 27.3888 35 18C35 8.61115 27.3888 1 18 1C8.61115 1 1 8.61115 1 18C1 27.3888 8.61115 35 18 35Z" stroke="#0667B1"/>
<path fill-rule="evenodd" clip-rule="evenodd" d="M18.5599 27.458H18.5557C16.8639 27.4574 15.2015 27.0329 13.725 26.2275L8.36621 27.6333L9.80031 22.395C8.91569 20.862 8.4502 19.123 8.45096 17.3414C8.45318 11.7678 12.988 7.23328 18.5598 7.23328C21.264 7.23444 23.8021 8.28718 25.7106 10.1979C27.6191 12.1086 28.6696 14.6483 28.6685 17.3493C28.6663 22.9216 24.1333 27.4557 18.5599 27.458ZM13.9735 24.3976L14.2803 24.5797C15.5703 25.3452 17.049 25.7502 18.5567 25.7508H18.5601C23.191 25.7508 26.9601 21.9816 26.9619 17.3488C26.9628 15.1038 26.0897 12.9928 24.5034 11.4047C22.9171 9.81655 20.8075 8.94151 18.5634 8.94073C13.9289 8.94073 10.1597 12.7095 10.1579 17.342C10.1573 18.9296 10.6015 20.4757 11.4425 21.8134L11.6423 22.1313L10.7935 25.2317L13.9735 24.3976ZM23.3071 19.5256C23.4833 19.6108 23.6022 19.6683 23.653 19.7531C23.7162 19.8584 23.7162 20.3641 23.5058 20.9542C23.2952 21.5442 22.2862 22.0827 21.8008 22.1552C21.3657 22.2202 20.815 22.2474 20.21 22.0551C19.8431 21.9387 19.3727 21.7833 18.77 21.523C16.4021 20.5006 14.8019 18.2055 14.4995 17.7718C14.4783 17.7414 14.4634 17.7201 14.4552 17.7091L14.4531 17.7064C14.3195 17.528 13.4238 16.333 13.4238 15.0962C13.4238 13.9328 13.9953 13.3229 14.2584 13.0422C14.2764 13.023 14.293 13.0053 14.3078 12.9891C14.5394 12.7362 14.813 12.673 14.9814 12.673C15.1498 12.673 15.3183 12.6746 15.4655 12.682C15.4837 12.6829 15.5025 12.6828 15.5221 12.6826C15.6693 12.6818 15.8528 12.6807 16.0338 13.1155C16.1034 13.2829 16.2053 13.531 16.3128 13.7926C16.5302 14.3218 16.7703 14.9064 16.8125 14.991C16.8757 15.1174 16.9178 15.2649 16.8336 15.4335C16.821 15.4588 16.8093 15.4827 16.7981 15.5055C16.7349 15.6346 16.6884 15.7295 16.581 15.8549C16.5388 15.9041 16.4952 15.9573 16.4516 16.0104C16.3647 16.1162 16.2778 16.222 16.2021 16.2974C16.0757 16.4233 15.9441 16.56 16.0914 16.8129C16.2387 17.0657 16.7457 17.8928 17.4965 18.5626C18.3037 19.2826 19.0052 19.5869 19.3608 19.7411C19.4303 19.7712 19.4865 19.7956 19.5278 19.8163C19.7803 19.9428 19.9276 19.9216 20.075 19.7531C20.2223 19.5845 20.7064 19.0155 20.8747 18.7627C21.0431 18.5099 21.2115 18.552 21.443 18.6363C21.6746 18.7206 22.9164 19.3316 23.169 19.458C23.2183 19.4827 23.2644 19.505 23.3071 19.5256Z" fill="#0667B1"/>
</svg>
