<svg width="36" height="36" viewBox="0 0 36 36" fill="none" xmlns="http://www.w3.org/2000/svg">
<path d="M27.5879 13.1907C27.3575 12.334 26.6819 11.6588 25.8252 11.4281C24.2602 11 17.9998 11 17.9998 11C17.9998 11 11.7396 11 10.1746 11.4119C9.33435 11.6423 8.64234 12.3342 8.41187 13.1907C8 14.7553 8 18 8 18C8 18 8 21.2611 8.41187 22.8093C8.64258 23.6658 9.31787 24.3411 10.1747 24.5718C11.7561 25 18 25 18 25C18 25 24.2602 25 25.8252 24.5881C26.682 24.3576 27.3575 23.6823 27.5882 22.8258C27.9999 21.2611 27.9999 18.0165 27.9999 18.0165C27.9999 18.0165 28.0164 14.7553 27.5879 13.1907ZM16.0066 20.9976V15.0024L21.2124 18L16.0066 20.9976Z" fill="#0667B1"/>
<path d="M18 35C27.3888 35 35 27.3888 35 18C35 8.61115 27.3888 1 18 1C8.61115 1 1 8.61115 1 18C1 27.3888 8.61115 35 18 35Z" stroke="#0667B1"/>
</svg>
