<svg width="94" height="66" viewBox="0 0 94 66" fill="none" xmlns="http://www.w3.org/2000/svg">
<path d="M91.924 10.2941C90.8268 6.24509 87.6594 3.08221 83.6047 1.98657C76.3103 0 46.9517 0 46.9517 0C46.9517 0 17.593 0.0601993 10.2986 2.04677C6.24387 3.14241 3.07649 6.30529 1.9793 10.3543C-0.227118 23.2971 -1.08316 43.0183 2.03959 55.4434C3.13678 59.4924 6.30415 62.6553 10.3589 63.7509C17.6533 65.7375 47.0119 65.7375 47.0119 65.7375C47.0119 65.7375 76.3706 65.7375 83.665 63.7509C87.7197 62.6553 90.8871 59.4924 91.9843 55.4434C94.3113 42.4825 95.0287 22.7733 91.924 10.2941Z" fill="#FF0000"/>
<path d="M37.6074 46.9552L61.9624 32.8686L37.6074 18.782V46.9552Z" fill="white"/>
</svg>
